#!OML:ASF H:\Terrain\Patient Classification 1\Takeo\Monday\TakeoMonday.ASF
:FULLY-SPECIFIED
:DEGREES
754
root 9.86055 17.2531 -0.159765 -2.40102 -18.3502 -1.59644
lowerback 12.1063 3.58824 -1.7924
upperback 6.23543 4.46086 -2.24051
thorax -0.198985 2.20134 -1.85397
lowerneck -16.3793 2.73745 -2.24248
upperneck -3.20798 3.95928 2.55602
head 1.67041 2.07347 1.46411
rclavicle -1.68967e-014 2.14687e-014
rhumerus -22.8065 23.9979 -86.3882
rradius 104.819
rwrist -3.91975
rhand -26.5101 33.2158
rfingers 7.12502
rthumb 0.0531196 3.2361
lclavicle -1.68967e-014 2.14687e-014
lhumerus -34.0207 -10.2783 93.1791
lradius 111.226
lwrist 19.4489
lhand -26.3713 2.93642
lfingers 7.12502
lthumb 0.187126 32.9161
rfemur -0.504351 -10.8117 21.2536
rtibia 31.6852
rfoot -24.3318 -20.8461
rtoes -11.1723
lfemur -20.9627 5.5994 -18.0355
ltibia 42.152
lfoot -13.6065 14.7146
ltoes -9.38087
755
root 9.86794 17.2547 -0.170843 -2.69852 -19.2273 -1.43511
lowerback 11.9922 3.42553 -1.72535
upperback 6.23557 4.25846 -2.07884
thorax -0.149839 2.09846 -1.6921
lowerneck -16.0724 3.14841 -1.72434
upperneck -3.26999 4.42221 1.68054
head 1.60797 2.26984 1.10813
rclavicle 4.79071e-014 1.59028e-015
rhumerus -24.7065 23.8732 -87.1551
rradius 105.492
rwrist -3.69724
rhand -26.6554 33.347
rfingers 7.12502
rthumb -0.0872989 3.36724
lclavicle 4.79071e-014 1.59028e-015
lhumerus -34.0166 -10.3236 93.0902
lradius 111.201
lwrist 19.6721
lhand -26.4403 2.88962
lfingers 7.12502
lthumb 0.12053 32.8693
rfemur -0.406747 -10.3529 21.0079
rtibia 31.8194
rfoot -24.1414 -20.5339
rtoes -11.1746
lfemur -20.5183 5.98133 -18.1109
ltibia 41.9921
lfoot -13.2954 15.2088
ltoes -11.2689
756
root 9.8814 17.2506 -0.182624 -3.11776 -20.0336 -1.00829
lowerback 12.0838 3.29097 -1.78012
upperback 6.14689 4.06913 -2.01488
thorax -0.303921 2.00113 -1.58183
lowerneck -15.7734 3.53107 -1.16473
upperneck -3.15228 4.84199 0.832946
head 1.61762 2.44613 0.759593
rclavicle 3.77691e-015 1.98785e-014
rhumerus -26.8565 23.4554 -88.032
rradius 106.119
rwrist -3.32315
rhand -27.3955 33.2085
rfingers 7.12502
rthumb -0.802056 3.23024
lclavicle 3.77691e-015 1.98785e-014
lhumerus -34.1454 -10.6375 93.0567
lradius 111.121
lwrist 19.8442
lhand -26.4643 2.55126
lfingers 7.12502
lthumb 0.097337 32.531
rfemur -0.318901 -9.94548 20.4593
rtibia 31.9918
rfoot -24.048 -20.1979
rtoes -11.5686
lfemur -20.072 6.15932 -18.4289
ltibia 41.8513
lfoot -13.6127 15.5845
ltoes -10.3904
757
root 9.88809 17.2569 -0.20262 -3.45875 -21.1104 -0.765089
lowerback 12.175 3.29979 -1.70775
upperback 6.06545 4.08327 -1.89588
thorax -0.442317 2.00732 -1.50924
lowerneck -15.6654 3.79866 -1.29129
upperneck -2.73812 5.21633 0.789881
head 1.73087 2.63008 0.794956
rclavicle -2.06736e-014 4.77083e-015
rhumerus -28.8152 22.8324 -88.5929
rradius 106.543
rwrist -3.09776
rhand -27.7347 33.6626
rfingers 7.12502
rthumb -1.12972 3.68585
lclavicle -2.06736e-014 4.77083e-015
lhumerus -34.278 -10.9729 93.2039
lradius 111.002
lwrist 19.7936
lhand -26.4879 1.93618
lfingers 7.12502
lthumb 0.0745213 31.9159
rfemur -0.424557 -9.29745 20.1771
rtibia 32.2545
rfoot -23.9583 -19.9392
rtoes -11.8882
lfemur -19.6306 6.70871 -18.5165
ltibia 41.7455
lfoot -14.0728 15.8901
ltoes -7.81454
758
root 9.88912 17.2601 -0.218001 -3.52659 -22.1939 -1.11804
lowerback 12.0846 3.26128 -1.12014
upperback 6.04997 4.10109 -1.62254
thorax -0.390488 2.0242 -1.55034
lowerneck -15.4487 4.03912 -1.73689
upperneck -2.5374 5.60144 1.06267
head 1.73536 2.8322 0.978893
rclavicle -2.36554e-014 2.3059e-014
rhumerus -30.483 22.3231 -89.0012
rradius 107.021
rwrist -3.08017
rhand -27.6571 34.0109
rfingers 7.12502
rthumb -1.05471 4.03376
lclavicle -2.36554e-014 2.3059e-014
lhumerus -34.187 -11.0828 93.2976
lradius 110.903
lwrist 19.7356
lhand -26.1617 1.69227
lfingers 7.12502
lthumb 0.389612 31.6717
rfemur -0.59358 -8.69101 20.5334
rtibia 32.5997
rfoot -23.9482 -19.7464
rtoes -12.6946
lfemur -19.2829 7.43312 -17.9853
ltibia 41.7089
lfoot -14.3584 16.093
ltoes -6.45443
759
root 9.89259 17.2449 -0.224217 -3.84081 -23.0694 -1.03059
lowerback 11.9814 3.13092 -0.902585
upperback 6.10508 3.95572 -1.48874
thorax -0.275499 1.95372 -1.50736
lowerneck -15.2007 4.48086 -1.5315
upperneck -2.38804 6.15876 0.605935
head 1.75133 3.09276 0.826146
rclavicle -3.27995e-014 1.59028e-014
rhumerus -32.0908 21.9772 -89.5965
rradius 107.474
rwrist -2.92364
rhand -27.6337 33.8957
rfingers 7.12502
rthumb -1.03209 3.91844
lclavicle -3.27995e-014 1.59028e-014
lhumerus -33.9873 -11.1319 93.2717
lradius 110.804
lwrist 19.7047
lhand -25.9751 1.85599
lfingers 7.12502
lthumb 0.569781 31.835
rfemur -0.542286 -8.26816 20.35
rtibia 33.0238
rfoot -24.3153 -19.203
rtoes -13.14
lfemur -18.8504 7.99406 -17.9338
ltibia 41.7322
lfoot -14.6952 16.2952
ltoes -5.71689
760
root 9.90099 17.2206 -0.235709 -4.42453 -23.8751 -0.348191
lowerback 12.0284 3.0208 -1.17864
upperback 6.08216 3.77775 -1.49402
thorax -0.345544 1.85787 -1.34139
lowerneck -15.0549 4.95412 -0.854181
upperneck -2.00501 6.69738 -0.359784
head 1.9033 3.32319 0.441575
rclavicle -1.45113e-014 3.97569e-016
rhumerus -33.9071 21.5868 -90.207
rradius 107.809
rwrist -2.66102
rhand -27.4801 34.0262
rfingers 7.12502
rthumb -0.883785 4.04827
lclavicle -1.45113e-014 3.97569e-016
lhumerus -34.054 -11.2319 93.3366
lradius 110.796
lwrist 19.6693
lhand -26.553 1.84507
lfingers 7.12502
lthumb 0.0116498 31.8248
rfemur -0.49557 -7.80785 19.5782
rtibia 33.4818
rfoot -24.6574 -18.6429
rtoes -12.4298
lfemur -18.4161 8.36391 -18.4808
ltibia 41.7722
lfoot -15.485 16.5384
ltoes -2.85819
761
root 9.90826 17.2026 -0.254341 -4.60651 -24.6572 -0.13234
lowerback 11.9383 2.92235 -1.04318
upperback 5.99432 3.66475 -1.36824
thorax -0.390948 1.80233 -1.27112
lowerneck -14.7649 5.23023 -0.636713
upperneck -1.84141 7.04194 -0.883212
head 1.93321 3.47578 0.254863
rclavicle -5.725e-014 2.90226e-014
rhumerus -35.6267 21.0866 -90.6016
rradius 108.196
rwrist -2.4443
rhand -27.3918 34.4118
rfingers 7.12502
rthumb -0.798479 4.43359
lclavicle -5.725e-014 2.90226e-014
lhumerus -34.1088 -11.4875 93.5165
lradius 110.92
lwrist 19.9352
lhand -27.4026 2.06629
lfingers 7.12502
lthumb -0.808958 32.0445
rfemur -0.771383 -7.32092 19.3935
rtibia 33.9096
rfoot -24.7257 -18.3516
rtoes -11.7852
lfemur -18.2956 8.73318 -18.5462
ltibia 41.8226
lfoot -16.4615 16.5714
ltoes 0.86183
762
root 9.91445 17.1967 -0.267678 -4.60515 -25.4257 -0.0318013
lowerback 11.6237 2.79247 -0.847964
upperback 5.96885 3.5228 -1.19266
thorax -0.250078 1.73318 -1.16568
lowerneck -14.65 5.57283 -0.737493
upperneck -1.61148 7.52447 -1.19597
head 1.99834 3.7039 0.203526
rclavicle -6.39093e-014 1.90833e-014
rhumerus -37.1124 20.7526 -90.865
rradius 108.687
rwrist -2.34558
rhand -27.592 34.7713
rfingers 7.12502
rthumb -0.991845 4.79388
lclavicle -6.39093e-014 1.90833e-014
lhumerus -33.9845 -11.7496 93.7093
lradius 111.068
lwrist 20.3742
lhand -27.9218 2.96483
lfingers 7.12502
lthumb -1.31037 32.9405
rfemur -1.14662 -6.98478 19.3013
rtibia 34.248
rfoot -24.6594 -18.039
rtoes -12.4828
lfemur -18.3273 9.35659 -18.5782
ltibia 41.9046
lfoot -16.4716 16.805
ltoes 0.930652
763
root 9.92663 17.1927 -0.272322 -5.04162 -26.2034 0.23392
lowerback 11.6648 2.59373 -0.720318
upperback 6.01127 3.2729 -1.03299
thorax -0.234206 1.60769 -1.04387
lowerneck -14.8074 6.03208 -0.378715
upperneck -1.06006 8.11567 -2.06146
head 2.27034 3.95874 -0.0744653
rclavicle 2.82771e-014 -9.14409e-015
rhumerus -38.6272 20.6913 -91.1637
rradius 109.19
rwrist -2.41369
rhand -27.5991 34.9621
rfingers 7.12502
rthumb -0.998764 4.98471
lclavicle 2.82771e-014 -9.14409e-015
lhumerus -33.9978 -11.5508 93.8594
lradius 111.108
lwrist 20.26
lhand -27.7243 3.08481
lfingers 7.12502
lthumb -1.1196 33.0616
rfemur -0.977692 -6.79687 18.9158
rtibia 34.4155
rfoot -24.4097 -17.7421
rtoes -13.4447
lfemur -17.9565 10.122 -18.768
ltibia 42.0809
lfoot -16.0277 17.229
ltoes -1.25692
